<?xml version="1.0" encoding="UTF-8" standalone="no"?><!DOCTYPE svg PUBLIC "-//W3C//DTD SVG 1.1//EN" "http://www.w3.org/Graphics/SVG/1.1/DTD/svg11.dtd"><svg width="100%" height="100%" viewBox="0 0 432 432" version="1.1" xmlns="http://www.w3.org/2000/svg" xmlns:xlink="http://www.w3.org/1999/xlink" xml:space="preserve" xmlns:serif="http://www.serif.com/" style="fill-rule:evenodd;clip-rule:evenodd;stroke-linejoin:round;stroke-miterlimit:2;"><g><path d="M431.036,56.456l0,318.125c0,31.159 -25.297,56.456 -56.456,56.456l-318.125,0c-31.159,0 -56.456,-25.297 -56.456,-56.456l0,-318.125c0,-31.159 25.297,-56.456 56.456,-56.456l318.125,0c31.159,0 56.456,25.297 56.456,56.456Z" style="fill:#fff;"/><g><path d="M198.846,260.997l-29.975,98.54l-69.71,0l-79.144,-268.356l81.241,0l36.689,165.102l2.097,0l26.722,-101.414l32.081,106.129Z" style="fill:#ff9e00;"/><path d="M182.295,95.929l1.251,-4.749l63.944,0l43.503,165.626l2.097,0l36.689,-165.626l81.241,0l-79.144,268.356l-69.71,0l-29.768,-97.859l-50.103,-165.749Z" style="fill:#ff5800;"/></g></g></svg>